<?xml version="1.0" encoding="UTF-8" standalone="no"?>
<svg
   xmlns:dc="http://purl.org/dc/elements/1.1/"
   xmlns:cc="http://creativecommons.org/ns#"
   xmlns:rdf="http://www.w3.org/1999/02/22-rdf-syntax-ns#"
   xmlns:svg="http://www.w3.org/2000/svg"
   xmlns="http://www.w3.org/2000/svg"
   xmlns:sodipodi="http://sodipodi.sourceforge.net/DTD/sodipodi-0.dtd"
   xmlns:inkscape="http://www.inkscape.org/namespaces/inkscape"
   inkscape:version="1.0 (4035a4f, 2020-05-01)"
   sodipodi:docname="chip_white.svg"
   xml:space="preserve"
   style="enable-background:new 0 0 296.477 296.477;"
   viewBox="0 0 296.477 296.477"
   y="0px"
   x="0px"
   id="Capa_1"
   version="1.1"><metadata
   id="metadata114"><rdf:RDF><cc:Work
       rdf:about=""><dc:format>image/svg+xml</dc:format><dc:type
         rdf:resource="http://purl.org/dc/dcmitype/StillImage" /></cc:Work></rdf:RDF></metadata><defs
   id="defs112" /><sodipodi:namedview
   inkscape:current-layer="Capa_1"
   inkscape:window-maximized="0"
   inkscape:window-y="25"
   inkscape:window-x="0"
   inkscape:cy="180.45331"
   inkscape:cx="164.3459"
   inkscape:zoom="1.9866635"
   showgrid="false"
   id="namedview110"
   inkscape:window-height="875"
   inkscape:window-width="1440"
   inkscape:pageshadow="2"
   inkscape:pageopacity="0"
   guidetolerance="10"
   gridtolerance="10"
   objecttolerance="10"
   borderopacity="1"
   bordercolor="#666666"
   pagecolor="#ffffff" />
<g
   id="g77">
	<path
   id="path63"
   d="M244.63,35.621c-21.771-18.635-47.382-29.855-73.767-33.902C121.871-5.797,70.223,11.421,35.622,51.847   c-53.236,62.198-45.972,155.773,16.226,209.01c21.771,18.634,47.381,29.853,73.766,33.901   c48.991,7.517,100.641-9.703,135.241-50.13C314.091,182.431,306.826,88.856,244.63,35.621z M273.361,191.241l-45.305-15.618   c6.102-17.803,6.028-37.107,0.014-54.724l45.257-15.575c3.577,10.453,5.862,21.429,6.74,32.741   C281.489,156.374,279.152,174.388,273.361,191.241z M275.905,104.058c0-0.003,0-0.005,0-0.008   C275.905,104.053,275.905,104.055,275.905,104.058z M247.935,61.472l-36.069,31.332c-2.669-3.055-5.579-5.961-8.752-8.677   c-11.467-9.814-24.81-15.995-38.637-18.692l9.095-46.741c22.33,4.33,43.21,14.294,60.635,29.209   C239.147,52.131,243.728,56.669,247.935,61.472z M103.251,23.983c6.428-2.315,13.021-4.109,19.71-5.388l9.087,46.843   c-17.789,3.467-34.584,12.651-47.393,27.341L48.55,61.38C63.334,44.416,82.206,31.568,103.251,23.983z M23.124,105.236   l45.297,15.617c-6.102,17.803-6.028,37.105-0.015,54.723l-45.295,15.588c-3.562-10.441-5.837-21.4-6.713-32.688   C14.976,140.151,17.32,122.11,23.124,105.236z M48.467,235.066l36.145-31.395c2.669,3.056,5.58,5.964,8.754,8.68   c11.466,9.814,24.808,15.993,38.634,18.691l-9.143,46.997c-22.325-4.348-43.185-14.422-60.604-29.333   C57.288,244.458,52.689,239.898,48.467,235.066z M193.203,272.635c-6.409,2.309-12.986,4.11-19.658,5.403l-9.117-47   c17.789-3.467,34.585-12.651,47.394-27.342l36.121,31.409C233.154,252.087,214.257,265.047,193.203,272.635z" />
	<circle
   id="circle65"
   r="8"
   cy="53.498"
   cx="93.372" />
	<circle
   id="circle67"
   r="8"
   cy="148.382"
   cx="38.758" />
	<circle
   id="circle69"
   r="8"
   cy="243.123"
   cx="93.623" />
	<circle
   id="circle71"
   r="8.001"
   cy="242.977"
   cx="203.105" />
	<circle
   id="circle73"
   r="8"
   cy="148.091"
   cx="257.717" />
	<circle
   id="circle75"
   r="8"
   cy="53.351"
   cx="202.853" />
</g>
<g
   id="g79">
</g>
<g
   id="g81">
</g>
<g
   id="g83">
</g>
<g
   id="g85">
</g>
<g
   id="g87">
</g>
<g
   id="g89">
</g>
<g
   id="g91">
</g>
<g
   id="g93">
</g>
<g
   id="g95">
</g>
<g
   id="g97">
</g>
<g
   id="g99">
</g>
<g
   id="g101">
</g>
<g
   id="g103">
</g>
<g
   id="g105">
</g>
<g
   id="g107">
</g>
<path
   id="path150"
   d="m 35.467452,155.15965 c -4.124244,-2.07974 -5.663862,-7.46524 -3.117377,-10.90443 3.482438,-4.70325 9.334316,-4.70325 12.816754,0 2.546485,3.43919 1.006866,8.82469 -3.117377,10.90443 -1.235256,0.6229 -2.716207,1.13255 -3.291,1.13255 -0.574793,0 -2.055744,-0.50965 -3.291,-1.13255 z"
   style="fill:#cccccc;stroke:#000000;stroke-width:2.59684" /><path
   id="path152"
   d="m 138.17136,295.89153 c -8.74591,-0.85719 -12.84283,-1.43292 -19.15048,-2.69122 C 61.542522,281.73421 15.645479,236.39373 3.5961346,179.17528 1.0313182,166.99579 0.5420066,161.97115 0.55892587,147.98682 0.57212312,137.07884 0.76000457,133.68417 1.6872074,127.60088 6.1453806,98.351198 17.78397,72.981848 36.813795,51.033289 65.728083,17.684216 108.86468,-1.10296 153.02038,0.42212434 201.45353,2.0949468 244.89154,26.477014 271.97496,67.192181 c 5.06945,7.621019 12.27682,22.049874 15.45802,30.946298 13.66942,38.227411 11.18156,80.063411 -6.9117,116.227551 -14.42136,28.82486 -37.76054,52.04866 -66.59476,66.26551 -17.48341,8.62029 -34.26253,13.33767 -53.60747,15.07151 -5.36452,0.48081 -18.06248,0.58887 -22.14769,0.18848 z M 123.25812,277.2236 c 0.65718,-2.2676 8.96451,-46.00752 8.77416,-46.19787 -0.11911,-0.11911 -2.35408,-0.77252 -4.9666,-1.45202 -14.79215,-3.84738 -28.070976,-11.56304 -38.854479,-22.57639 -1.869828,-1.90968 -3.600343,-3.39695 -3.845583,-3.30504 -0.245245,0.0919 -8.507339,7.16302 -18.360206,15.71358 l -17.914308,15.54648 2.075536,2.47899 c 2.792063,3.33482 11.36285,11.2612 16.295503,15.07032 15.086199,11.64993 31.584786,19.73826 49.606377,24.31922 5.81726,1.4787 6.86083,1.53716 7.1896,0.40273 z m 57.60215,-0.61156 c 23.73977,-6.02039 44.02407,-17.62164 61.43844,-35.13862 6.01097,-6.04638 6.19229,-6.29127 5.28525,-7.13817 -4.22406,-3.944 -35.47744,-30.72754 -35.85557,-30.72754 -0.26715,0 -1.17684,0.8726 -2.02153,1.9391 -2.00905,2.53663 -9.19181,8.69587 -14.03115,12.03177 -7.40697,5.10584 -17.48775,9.71606 -26.18834,11.97667 -2.65436,0.68966 -4.92958,1.3574 -5.05605,1.48387 -0.19761,0.19761 8.17844,44.70091 8.73984,46.43616 0.29076,0.8987 1.09934,0.80793 7.68911,-0.86324 z M 46.53354,183.4167 c 12.027989,-4.13799 21.930658,-7.5852 22.005925,-7.66047 0.07527,-0.0753 -0.309287,-1.59746 -0.854569,-3.38265 -2.458574,-8.04904 -3.236753,-13.85159 -3.236753,-24.13509 0,-10.28349 0.778179,-16.08604 3.236753,-24.13508 0.545282,-1.78519 0.918928,-3.31829 0.830322,-3.4069 -0.15976,-0.15976 -45.119113,-15.74668 -45.420168,-15.74668 -0.396283,0 -3.348401,10.40153 -4.428674,15.60406 -2.232165,10.74994 -2.559367,14.30288 -2.549574,27.6846 0.01175,16.05691 1.299532,25.36005 5.318822,38.42403 1.276279,4.14832 1.661418,4.89628 2.376012,4.61431 0.469058,-0.18508 10.693915,-3.72214 22.721904,-7.86013 z m 228.54017,3.20273 c 6.18506,-19.77585 7.23637,-44.3448 2.80671,-65.59226 -0.92148,-4.42003 -3.69981,-14.59291 -4.21169,-15.42114 -0.24818,-0.40157 -7.26558,1.79839 -22.98023,7.2043 -12.44261,4.28031 -22.68253,7.84199 -22.75538,7.91483 -0.0728,0.0729 0.31369,1.59306 0.85897,3.37825 2.45858,8.04904 3.23676,13.85159 3.23676,24.13508 0,10.2835 -0.77818,16.08605 -3.23676,24.13509 -0.54528,1.78519 -0.9243,3.31293 -0.84225,3.39497 0.18511,0.1851 44.73233,15.66908 45.22917,15.721 0.19787,0.0207 1.05049,-2.17087 1.8947,-4.87012 z M 86.436412,91.296842 c 1.836063,-2.51571 9.79716,-9.298162 14.989928,-12.770658 8.12881,-5.435878 16.53375,-9.244948 25.63934,-11.619603 2.61252,-0.681318 4.8529,-1.341616 4.97861,-1.467324 0.30266,-0.302663 -8.53044,-46.190577 -8.99499,-46.728916 -0.19801,-0.229463 -2.82245,0.169199 -5.83209,0.885917 -18.497017,4.404898 -36.953424,13.43594 -52.032541,25.46043 -6.333886,5.050807 -16.750244,15.319195 -16.521927,16.28722 0.204543,0.867228 35.175791,31.450989 36.011922,31.493875 0.337772,0.01731 1.130559,-0.676099 1.761748,-1.540941 z M 230.24451,77.274492 c 9.71222,-8.438711 17.65858,-15.618367 17.65858,-15.954795 0,-0.812302 -10.47115,-11.24267 -14.88249,-14.82454 -11.3877,-9.246428 -23.07005,-16.139919 -35.95652,-21.21713 -8.85759,-3.489845 -23.07188,-7.352034 -23.64316,-6.424121 -0.41616,0.675946 -9.21295,46.360612 -8.97313,46.600431 0.11741,0.117413 2.35099,0.769441 4.96352,1.448947 8.98952,2.338137 17.96652,6.360917 25.42333,11.392725 4.92471,3.32316 12.38205,9.603091 14.70841,12.38616 1.01848,1.218429 2.11978,2.152352 2.44733,2.075379 0.32755,-0.07697 8.54191,-7.044349 18.25413,-15.483056 z"
   style="fill:#cccccc;stroke:#000000;stroke-width:2.59684" /><path
   id="path154"
   d="m 90.543329,250.22754 c -2.113727,-0.95685 -4.25069,-3.86973 -4.566547,-6.22463 -0.754621,-5.62611 5.551118,-10.32293 10.625993,-7.91474 3.932375,1.86603 5.768475,6.3997 4.054565,10.01149 -1.813601,3.82189 -6.534065,5.74847 -10.114011,4.12788 z"
   style="fill:#cccccc;stroke:#000000;stroke-width:2.59684" /><path
   id="path156"
   d="m 200.83925,250.31606 c -6.40375,-2.23775 -7.18536,-10.91945 -1.26624,-14.06487 4.97951,-2.64611 11.08169,0.91447 11.08169,6.46609 0,3.63036 -2.04949,6.48178 -5.48619,7.63286 -2.00031,0.66998 -2.32171,0.66745 -4.32926,-0.0341 z"
   style="fill:#cccccc;stroke:#000000;stroke-width:2.59684" /><path
   id="path158"
   d="m 254.67344,155.08082 c -3.116,-1.35724 -5.34881,-5.49694 -4.57108,-8.47493 0.99788,-3.82097 5.19894,-6.84497 8.61817,-6.20352 4.12547,0.77395 7.3225,5.14497 6.59592,9.01802 -0.88605,4.72305 -6.248,7.57478 -10.64301,5.66043 z"
   style="fill:#cccccc;stroke:#000000;stroke-width:2.59684" /><path
   id="path160"
   d="m 199.67128,60.311294 c -2.77694,-1.368421 -4.36895,-3.921077 -4.36895,-7.005248 0,-4.448686 3.05192,-7.500603 7.5006,-7.500603 6.39503,0 9.98897,7.013513 6.16381,12.028564 -2.35766,3.091049 -6.05199,4.075607 -9.29546,2.477287 z"
   style="fill:#cccccc;stroke:#000000;stroke-width:2.59684" /><path
   id="path162"
   d="m 89.841285,60.225797 c -6.222391,-3.306583 -5.06224,-12.148998 1.861826,-14.190428 1.912779,-0.563947 2.327666,-0.510698 4.529481,0.581344 3.118707,1.546797 4.690388,3.875089 4.690388,6.948348 0,5.681808 -6.064459,9.326897 -11.081695,6.660736 z"
   style="fill:#cccccc;stroke:#000000;stroke-width:2.59684" /></svg>
