<?xml version="1.0" encoding="UTF-8" standalone="no"?>
<svg
   xmlns:dc="http://purl.org/dc/elements/1.1/"
   xmlns:cc="http://creativecommons.org/ns#"
   xmlns:rdf="http://www.w3.org/1999/02/22-rdf-syntax-ns#"
   xmlns:svg="http://www.w3.org/2000/svg"
   xmlns="http://www.w3.org/2000/svg"
   xmlns:sodipodi="http://sodipodi.sourceforge.net/DTD/sodipodi-0.dtd"
   xmlns:inkscape="http://www.inkscape.org/namespaces/inkscape"
   inkscape:version="1.0 (4035a4f, 2020-05-01)"
   sodipodi:docname="chip_blue.svg"
   xml:space="preserve"
   style="enable-background:new 0 0 296.477 296.477;"
   viewBox="0 0 296.477 296.477"
   y="0px"
   x="0px"
   id="Capa_1"
   version="1.1"><metadata
   id="metadata61"><rdf:RDF><cc:Work
       rdf:about=""><dc:format>image/svg+xml</dc:format><dc:type
         rdf:resource="http://purl.org/dc/dcmitype/StillImage" /></cc:Work></rdf:RDF></metadata><defs
   id="defs59" /><sodipodi:namedview
   inkscape:current-layer="Capa_1"
   inkscape:window-maximized="0"
   inkscape:window-y="25"
   inkscape:window-x="0"
   inkscape:cy="139.68144"
   inkscape:cx="187.50031"
   inkscape:zoom="1.9866634"
   showgrid="false"
   id="namedview57"
   inkscape:window-height="875"
   inkscape:window-width="1440"
   inkscape:pageshadow="2"
   inkscape:pageopacity="0"
   guidetolerance="10"
   gridtolerance="10"
   objecttolerance="10"
   borderopacity="1"
   bordercolor="#666666"
   pagecolor="#ffffff" />
<g
   id="g24">
	<path
   id="path10"
   d="M244.63,35.621c-21.771-18.635-47.382-29.855-73.767-33.902C121.871-5.797,70.223,11.421,35.622,51.847   c-53.236,62.198-45.972,155.773,16.226,209.01c21.771,18.634,47.381,29.853,73.766,33.901   c48.991,7.517,100.641-9.703,135.241-50.13C314.091,182.431,306.826,88.856,244.63,35.621z M273.361,191.241l-45.305-15.618   c6.102-17.803,6.028-37.107,0.014-54.724l45.257-15.575c3.577,10.453,5.862,21.429,6.74,32.741   C281.489,156.374,279.152,174.388,273.361,191.241z M275.905,104.058c0-0.003,0-0.005,0-0.008   C275.905,104.053,275.905,104.055,275.905,104.058z M247.935,61.472l-36.069,31.332c-2.669-3.055-5.579-5.961-8.752-8.677   c-11.467-9.814-24.81-15.995-38.637-18.692l9.095-46.741c22.33,4.33,43.21,14.294,60.635,29.209   C239.147,52.131,243.728,56.669,247.935,61.472z M103.251,23.983c6.428-2.315,13.021-4.109,19.71-5.388l9.087,46.843   c-17.789,3.467-34.584,12.651-47.393,27.341L48.55,61.38C63.334,44.416,82.206,31.568,103.251,23.983z M23.124,105.236   l45.297,15.617c-6.102,17.803-6.028,37.105-0.015,54.723l-45.295,15.588c-3.562-10.441-5.837-21.4-6.713-32.688   C14.976,140.151,17.32,122.11,23.124,105.236z M48.467,235.066l36.145-31.395c2.669,3.056,5.58,5.964,8.754,8.68   c11.466,9.814,24.808,15.993,38.634,18.691l-9.143,46.997c-22.325-4.348-43.185-14.422-60.604-29.333   C57.288,244.458,52.689,239.898,48.467,235.066z M193.203,272.635c-6.409,2.309-12.986,4.11-19.658,5.403l-9.117-47   c17.789-3.467,34.585-12.651,47.394-27.342l36.121,31.409C233.154,252.087,214.257,265.047,193.203,272.635z" />
	<circle
   id="circle12"
   r="8"
   cy="53.498"
   cx="93.372" />
	<circle
   id="circle14"
   r="8"
   cy="148.382"
   cx="38.758" />
	<circle
   id="circle16"
   r="8"
   cy="243.123"
   cx="93.623" />
	<circle
   id="circle18"
   r="8.001"
   cy="242.977"
   cx="203.105" />
	<circle
   id="circle20"
   r="8"
   cy="148.091"
   cx="257.717" />
	<circle
   id="circle22"
   r="8"
   cy="53.351"
   cx="202.853" />
</g>
<g
   id="g26">
</g>
<g
   id="g28">
</g>
<g
   id="g30">
</g>
<g
   id="g32">
</g>
<g
   id="g34">
</g>
<g
   id="g36">
</g>
<g
   id="g38">
</g>
<g
   id="g40">
</g>
<g
   id="g42">
</g>
<g
   id="g44">
</g>
<g
   id="g46">
</g>
<g
   id="g48">
</g>
<g
   id="g50">
</g>
<g
   id="g52">
</g>
<g
   id="g54">
</g>
<path
   id="path126"
   d="m 138.17137,295.89154 c -8.74592,-0.85719 -12.84284,-1.43292 -19.15049,-2.69121 C 61.542525,281.73422 15.64548,236.39374 3.5961347,179.17529 1.0313182,166.9958 0.54200662,161.97116 0.55892589,147.98682 0.57212314,137.07884 0.76000459,133.68418 1.6872074,127.60088 6.1453808,98.351201 17.783971,72.98185 36.813797,51.033291 65.728085,17.684217 108.86469,-1.10296 153.02039,0.42212436 201.45354,2.0949469 244.89155,26.477015 271.97497,67.192183 c 5.06945,7.621019 12.27682,22.049876 15.45802,30.9463 13.66942,38.227407 11.18156,80.063417 -6.9117,116.227547 -14.42136,28.82487 -37.76055,52.04867 -66.59476,66.26552 -17.48342,8.62029 -34.26254,13.33767 -53.60747,15.07151 -5.36452,0.48081 -18.06248,0.58887 -22.14769,0.18848 z m -14.91325,-18.66793 c 0.65719,-2.2676 8.96452,-46.00752 8.77416,-46.19787 -0.1191,-0.11911 -2.35407,-0.77252 -4.9666,-1.45203 -14.79215,-3.84737 -28.070973,-11.56303 -38.854476,-22.57638 -1.869828,-1.90968 -3.600343,-3.39695 -3.845583,-3.30504 -0.245245,0.0919 -8.50734,7.16302 -18.360207,15.71358 l -17.914309,15.54647 2.075537,2.479 c 2.792063,3.33482 11.362851,11.2612 16.295503,15.07032 15.086199,11.64993 31.584787,19.73825 49.606385,24.31922 5.81725,1.4787 6.86082,1.53716 7.18959,0.40273 z m 57.60216,-0.61156 c 23.73977,-6.02039 44.02406,-17.62164 61.43844,-35.13862 6.01097,-6.04638 6.19229,-6.29127 5.28525,-7.13817 -4.22407,-3.944 -35.47744,-30.72754 -35.85557,-30.72754 -0.26716,0 -1.17685,0.87259 -2.02153,1.9391 -2.00905,2.53663 -9.19181,8.69587 -14.03115,12.03177 -7.40697,5.10583 -17.48775,9.71606 -26.18834,11.97667 -2.65436,0.68965 -4.92958,1.3574 -5.05606,1.48387 -0.1976,0.19761 8.17845,44.70091 8.73985,46.43616 0.29075,0.8987 1.09933,0.80793 7.68911,-0.86324 z M 46.533542,183.41671 c 12.027989,-4.13799 21.930658,-7.5852 22.005925,-7.66047 0.07527,-0.0753 -0.309287,-1.59747 -0.854568,-3.38265 -2.458575,-8.04904 -3.236754,-13.85159 -3.236754,-24.13509 0,-10.2835 0.778179,-16.08605 3.236754,-24.13509 0.545281,-1.78518 0.918927,-3.31829 0.830322,-3.40689 -0.159761,-0.15976 -45.119115,-15.74668 -45.42017,-15.74668 -0.396284,0 -3.348401,10.40153 -4.428674,15.60405 -2.232166,10.74995 -2.559367,14.30288 -2.549574,27.68461 0.01175,16.0569 1.299532,25.36004 5.318822,38.42403 1.276279,4.14832 1.661418,4.89627 2.376012,4.61431 0.469058,-0.18509 10.693916,-3.72214 22.721905,-7.86013 z m 228.540178,3.20273 c 6.18506,-19.77586 7.23637,-44.3448 2.80671,-65.59227 -0.92148,-4.42002 -3.69981,-14.5929 -4.21169,-15.42114 -0.24818,-0.40156 -7.26558,1.79839 -22.98023,7.2043 -12.44261,4.28031 -22.68254,7.84199 -22.75538,7.91484 -0.0729,0.0728 0.31369,1.59306 0.85897,3.37824 2.45858,8.04904 3.23675,13.85159 3.23675,24.13509 0,10.2835 -0.77817,16.08605 -3.23675,24.13509 -0.54528,1.78518 -0.9243,3.31292 -0.84225,3.39496 0.1851,0.18511 44.73233,15.66909 45.22917,15.72101 0.19787,0.0207 1.05049,-2.17087 1.8947,-4.87012 z M 86.436415,91.296846 c 1.836063,-2.515711 9.79716,-9.298164 14.989925,-12.770659 8.12881,-5.435878 16.53375,-9.244948 25.63934,-11.619603 2.61253,-0.681319 4.8529,-1.341617 4.97861,-1.467325 0.30267,-0.302663 -8.53044,-46.190578 -8.99499,-46.728917 -0.19801,-0.229464 -2.82245,0.169199 -5.83208,0.885916 -18.497023,4.404899 -36.953431,13.435941 -52.032549,25.460431 -6.333886,5.050808 -16.750244,15.319196 -16.521927,16.287221 0.204543,0.867228 35.175792,31.45099 36.011923,31.493876 0.337772,0.01732 1.130559,-0.676098 1.761748,-1.54094 z M 230.24452,77.274495 c 9.71222,-8.438712 17.65857,-15.618368 17.65857,-15.954796 0,-0.812302 -10.47114,-11.24267 -14.88249,-14.82454 -11.38769,-9.246429 -23.07004,-16.13992 -35.95652,-21.217131 -8.85758,-3.489846 -23.07187,-7.352034 -23.64316,-6.424121 -0.41615,0.675946 -9.21295,46.360614 -8.97313,46.600433 0.11742,0.117413 2.351,0.769441 4.96353,1.448947 8.98952,2.338136 17.96651,6.360916 25.42333,11.392725 4.92471,3.32316 12.38205,9.603091 14.7084,12.38616 1.01848,1.21843 2.11979,2.152352 2.44734,2.075379 0.32755,-0.07697 8.54191,-7.044349 18.25413,-15.483056 z"
   style="fill:#000080;stroke:#000000;stroke-width:2.59684" /><path
   id="path128"
   d="m 35.467453,155.15965 c -4.124244,-2.07973 -5.663862,-7.46524 -3.117377,-10.90442 3.482438,-4.70325 9.334316,-4.70325 12.816755,0 2.546485,3.43918 1.006866,8.82469 -3.117377,10.90442 -1.235257,0.62291 -2.716207,1.13255 -3.291001,1.13255 -0.574793,0 -2.055744,-0.50964 -3.291,-1.13255 z"
   style="fill:#000080;stroke:#000000;stroke-width:2.59684" /><path
   id="path130"
   d="M 89.841289,60.225799 C 83.618897,56.919216 84.779048,48.0768 91.703114,46.03537 c 1.912779,-0.563947 2.327666,-0.510697 4.529481,0.581345 3.118707,1.546796 4.690395,3.875089 4.690395,6.948348 0,5.681808 -6.064466,9.326897 -11.081701,6.660736 z"
   style="fill:#000080;stroke:#000000;stroke-width:2.59684" /><path
   id="path132"
   d="m 199.67128,60.311296 c -2.77693,-1.368421 -4.36894,-3.921077 -4.36894,-7.005248 0,-4.448686 3.05191,-7.500603 7.5006,-7.500603 6.39503,0 9.98897,7.013513 6.16381,12.028564 -2.35766,3.091049 -6.052,4.075607 -9.29547,2.477287 z"
   style="fill:#000080;stroke:#000000;stroke-width:2.59684" /><path
   id="path134"
   d="m 254.67345,155.08083 c -3.116,-1.35725 -5.34881,-5.49695 -4.57109,-8.47493 0.99789,-3.82098 5.19895,-6.84497 8.61818,-6.20352 4.12547,0.77394 7.3225,5.14497 6.59592,9.01801 -0.88605,4.72306 -6.248,7.57479 -10.64301,5.66044 z"
   style="fill:#000080;stroke:#000000;stroke-width:2.59684" /><path
   id="path136"
   d="m 200.83926,250.31607 c -6.40376,-2.23776 -7.18536,-10.91945 -1.26625,-14.06487 4.97951,-2.64611 11.0817,0.91447 11.0817,6.46609 0,3.63036 -2.04949,6.48178 -5.48619,7.63286 -2.00031,0.66998 -2.32172,0.66745 -4.32926,-0.0341 z"
   style="fill:#000080;stroke:#000000;stroke-width:2.59684" /><path
   id="path138"
   d="m 90.543332,250.22755 c -2.113727,-0.95686 -4.25069,-3.86973 -4.566547,-6.22463 -0.754621,-5.62612 5.551118,-10.32293 10.625994,-7.91474 3.932371,1.86603 5.768471,6.3997 4.054571,10.01149 -1.813608,3.82189 -6.534072,5.74847 -10.114018,4.12788 z"
   style="fill:#000080;stroke:#000000;stroke-width:2.59684" /></svg>
